White Zombie - Astro-Creep 2000 - CD remaster by MC Lurken (a.k.a. Beavis39)



!!!!!!!!!!!!!THIS IS NOT AN OFFICIAL REMASTER, THIS IS A FAN RELEASE!!!!!!!!!!!!!!
!!!!!!!!!!!!!THIS IS NOT AN OFFICIAL REMASTER, THIS IS A FAN RELEASE!!!!!!!!!!!!!!
!!!!!!!!!!!!!THIS IS NOT AN OFFICIAL REMASTER, THIS IS A FAN RELEASE!!!!!!!!!!!!!!



1 - Electric Head, Pt. 1 (The Agony)
2 - Super-Charger Heaven
3 - Real Solution #9
4 - Creature of the Wheel
5 - Electric Head, Pt. 2 (The Ecstasy)
6 - Grease Paint and Monkey Brains
7 - I, Zombie
8 - More Human Than Human
9 - El Phantasmo and the Chicken-Run Blast-O-Rama
10 - Blur the Technicolor [Poker from Stud to Strip Mix]
11 - Blood, Milk and Sky*
*w/hidden track "Where The Sidewalk Ends, The Bug Parade Begins" (silence removed)

foobar2000 1.1.13 / Dynamic Range Meter 1.1.1
log date: 2012-06-28 11:52:15

--------------------------------------------------------------------------------
Analyzed: ? / ?
--------------------------------------------------------------------------------

DR         Peak         RMS     Duration Track
--------------------------------------------------------------------------------
DR6       -0.08 dB    -8.86 dB      4:54 ?-01 - Electric Head, Pt. 1 (The Agony)
DR7       -0.10 dB    -7.98 dB      3:37 ?-02 - Super-Charger Heaven
DR7       -0.12 dB    -9.45 dB      4:44 ?-03 - Real Solution #9
DR7       -0.09 dB    -9.08 dB      3:25 ?-04 - Creature of the Wheel
DR8       -0.12 dB    -9.45 dB      3:53 ?-05 - Electric Head, Pt. 2 (The Ecstasy)
DR8       -0.15 dB   -10.96 dB      3:49 ?-06 - Grease Paint and Monkey Brains
DR8       -0.08 dB    -9.32 dB      3:31 ?-07 - I, Zombie
DR7       -0.12 dB    -9.49 dB      4:29 ?-08 - More Human Than Human
DR8       -0.13 dB    -9.65 dB      4:13 ?-09 - El Phantasmo and the Chicken-Run Blast-O-Rama
DR7       -0.13 dB    -9.03 dB      4:09 ?-10 - Blur the Technicolor [Poker from Stud to Strip Mix]
DR8       -0.10 dB   -10.32 dB      8:24 ?-11 - Blood, Milk and Sky
--------------------------------------------------------------------------------

Number of tracks:  11
Official DR value: DR7

Samplerate:        44100 Hz
Channels:          2
Bits per sample:   16
Bitrate:           1411 kbps
Codec:             PCM



enjoy :)